# xmcd
#
# Track frame offsets:
# 150
# 19260
# 44565
# 65005
# 88880
# 104285
# 130058
# 146283
# 156831
# 172115
# 199206
# 214012
# 233952
# 251701
# 270975
#
# Disc length: 3898 seconds
#
#
# Revision: 0
# Processed by: cddbd v1.5.2PL0 Copyright (c) Steve Scherf et al.
# Submitted via: FreeRIP 2.95 
#
DISCID=dd0f380f
DTITLE=Na Correria - Rap sem exclusão!
DYEAR=2003
DGENRE=Rap
TTITLE0=O Som Tá Legal
TTITLE1=Quem Não Amarela
TTITLE2=Sou Anti-Sistema
TTITLE3=Vejo os Prantos
TTITLE4=Faz Sol Agora
TTITLE5=Os Loucos Entrando em Cena
TTITLE6=Clube dos Pipoca
TTITLE7=Treta sem Treta
TTITLE8=Proposta
TTITLE9=Idéia Consciente
TTITLE10=Som do LRK
TTITLE11=Bem Melhor
TTITLE12=Seu Tempo Está Acabando
TTITLE13=Racha
TTITLE14=Paz na Periferia
EXTD=
EXTT0=
EXTT1=
EXTT2=
EXTT3=
EXTT4=
EXTT5=
EXTT6=
EXTT7=
EXTT8=
EXTT9=
EXTT10=
EXTT11=
EXTT12=
EXTT13=
EXTT14=
PLAYORDER=
